<svg id="Layer_1" data-name="Layer 1" xmlns="http://www.w3.org/2000/svg" viewBox="0 0 348.8 348.05"><defs><style>.cls-1{fill:#d14213;}.cls-1,.cls-2,.cls-4,.cls-5,.cls-6{fill-rule:evenodd;}.cls-3{fill:#572985;}.cls-4{fill:#030303;}.cls-5{fill:#020202;}.cls-6{fill:#231f20;}</style></defs><path class="cls-1" d="M267.26,398c-8.21-.81-13.35.85-6.42,4.88a82,82,0,0,0,9.66,4.23c35,13.68,49.68,21.17,77.21,30.26,18.52,8.83,48.73,16.24,73.05,27.95,6.61,2.13,21.09,13.21,30.84,0,28.31-23.45,43.7-40.18,67.47-59.88,18.67-16.52,38.48-31.51,57.12-48.78,4.27-3.76,2.53-7.93,1.09-10.59-.86-1.52-2.81-3.05-3.66-4.19-2.81-3.05-8.51-1.95-14-3.32-8-2.14-8.21-.81-5.63,3.94,2.57,4.18.51,8.89-2.7,11.52-16.81,14.45-44.92,35.25-58.82,46.5-8.3,6-37.62,32.65-53.41,44.46-9.9,7.31-8.29,6.56-21.78,2.12-20.9-6.4-61.94-20.5-71.34-25.3-8-3.27-33.62-12.54-53.95-17.6-9.62-2.53-19.8-5.82-24.73-6.24Z" transform="translate(-230.09 -123.61)"/><path class="cls-1" d="M503.5,185.91c3.5,1.9,9.43,5.68,12.66,7.76,3.77,2.46,12.66,12.1,15.09,17.4,4.31,9.27,5.65,17.78,8.62,27.62,4,18.15,8.62,32.72,14.27,50.5,1.89,7.56,4.58,19.48,10.24,22.5,7.81,4.36,14.82,6.81,14-2.83-1.08-12.86-.81-16.27-5.93-40.48l-6.19-33.29c-.27-1.32-.27-1.89-.54-3.21l-3.5-16.65c-1.08-3.4-5.39-20-8.36-30.07-3.5-11.16-10-8.32-15.62-12.86-.54-.38-10.77-2.65-10.77-2.65-12.13-4.54-25.6-10.22-38-13.81-8.08-2.46-30.71-9.08-37.44-12.29-10.24-3.41-21-7.38-31.25-10.22-8.08-2.46-16.7-4.54-24.51-7.75-5.12-2.27-6.47-2.27-8.62-1.52-2.16.57-5.39,2.46-8.62,6.44-4.32,7.75,3.77,1.89,5.65,7.37,2.43,4,35,15.51,44.18,20,22.36,9.65,65.46,22.32,74.62,28Z" transform="translate(-230.09 -123.61)"/><path class="cls-1" d="M343.54,148.38a25.81,25.81,0,0,1,3.85-3.21,98.47,98.47,0,0,1,12.95-10.78c14.6-14.38-3.86-6-6.06-6-4.68,0-26.72,14.56-32.78,18-28.37,19.49-57.29,46.91-78.78,67.53-11,12.48-13.5,14-12.39,29.31,3.58,41.24,6.06,96.09,15.42,135.43,1.93,6.81,5.51,4.54,10.47.57,3.3-2.46,7.16-7,9.09-9.46,3-4,1.93-8.89,1.65-14-1.65-31.21-3.86-61.85-6.33-93.06-1.93-20.43-2.76-25.92,10.74-44.64,20.93-22.32,48.2-48.42,72.17-69.61Z" transform="translate(-230.09 -123.61)"/><path class="cls-2" d="M475.88,288.45c-1.27,7.36-4.06,14.72-13.2,13.82-3.05-.36-5.58-4.85-6.09-7.54-2.29-8.62,5.33-23,13.71-26.21,5.58-2.15,4.82,3.41,5.08,7.72.25,4.49,1.52,7.72.5,12.21Zm-31.73,0c-.51,3.41-1.52,7.72-3.3,9.87a12,12,0,0,1-9.65,3.95c-3.3-.54-5.58-4.67-6.35-7.54-1.27-4.85-.25-7.36,1.53-11.31,2.79-6.64,5.33-12.21,12.18-14.9,5.84-2.15,4.83,3.05,5.08,7.72.25,4.85,1.52,7.36.51,12.21Zm-2.29-62.12c2-1.61,5.08,2.7,6.1,4.85,1.52,3.41,1.52,5.74,1.77,9.87.26,3.77.26,7.36-1.52,10.06-1.27,1.61-4.32,4.31-7.11,4.66-3,.36-6.09-2.51-7.36-4.66-1.78-3.06-1.27-6.11-.51-9.88.51-3.41,7.36-14,8.63-14.9Zm6.35-28c.76-4.13,3.81-7.54,5.59-11,1-1.62,1-2,2.79-2.7,1,5.93-6.6,12.93-8.38,13.65Zm-4.32,21.36c-5.58,1.08-8.63,2.15-11.17,6.28a96.37,96.37,0,0,0-5.07,12.21c-1.53,5.39-2,9,1.27,13.47,3,4.12,5.58,5.92,9.64,8.25-3.81-.89-7.36,2.7-8.12,3.23-.76.36-2,3.77-5.08,2.88,0-4.49-1.27-3.77-6.09.18-6.6,6.82-4.83,26.57-.26,33.39,6.35,9.51,14.73,8.79,23.87,3.95,3.05-1.62,4.31-3.41,6.35-5.93,8.37,10.77,14,12.39,26.15,5.57,7.1-3.95,7.61-13.47,8.37-21,.26-3.05-.25-6.46-.25-9.51,2.54.54,6.85,1.26,7.11,3.23,0,1.8.25,5.21.76,10.95.25,4.31,0,13.82,1.78,17.06l3.55.36L499,300.3c.5-.72,0,.71,1.26-1.08,2.29-7.9.51-16.88.51-25,4.57-.54,9.65-3.42,14-4.49,2.79-1.44,7.1-7.36,3.3-7.72-6.1-.36-20.82,2-26.66,3.59-3.05.9-6.09,2.33-9.14,2.87a12.46,12.46,0,0,0-4.82-6.1c-2.8-2-6.1-2.34-11.17-.9-3.3.9-9.4,6.82-10.41,9.15-1.78-1.79-3.56-2.51-6.1-4.12-1.77-1.44-1.27-2-3-3.42-1.27-1.07-2.54-1.43-3.3-3.05l4.82-.54v-.18c.25,0,.51-.35.51-.35,3.3-2.34,4.82-3.59,6.85-7,2.54,2.88,2.29,6.65,8.13,7.72,5.07,1.08,9.9-1.79,11.93-4.13,3.81-4.66,5.33-18.84,6.35-25.13,2,.36,5.33.36,6.6,2.16,1.77,2.87.5,21,2.54,26.21l3,.18c1.27-1.62,1.27-2.7,2.54-3.77,2.79-2.88,2-14.55,2-19,.26-1.8-.76-2.52-.25-5.21,4.82-.36,5.84-1.08,9.65-2,2.79-.72,1.77-.9,4.06-1.8,2-.54,2.79-.18,4.57-1.44-.51-5.56-5.08-5.56-9.4-5.2-8.88,1.08-15.48,2.33-23.86,5.56-3.3,1.08-2.79.72-5.08-.89-2-1.26-3-2.34-5.58-2-3.81,2-2.29,14.72-3.3,20.11-.26,1.25-.51,2.87-.77,4.31-.25,2.69-.25,6.1-3,6.46-2.54-2.51-1.53-9.52-1.53-13.64L465,226c-2-3.59-8.89-9.51-10.16-5.38-.76,1.61-.76,7.54-1.78,9.15-1.52-2.87,1-3.59-2.28-6.46a21,21,0,0,0-2.54-2.15,25,25,0,0,1-3-1.62s0-.36.26-.18l1.52-2.15a8.67,8.67,0,0,0,1.27-2.88c1.27-3.05,1-4.48.76-7.89a14.49,14.49,0,0,1,8.13-2l2,2.16c3,2.87,4.57,10.23,5.07,10.41,3.3,2,8.13-7.54-1.26-14.54-1.53-1.08-3.81-2.34-4.83-3.24,2.79-5.56,10.41-10.23,3.3-15.25-6.09-4.13-10.91-6.47-17.26-.72-2.79,2.69-5.59,13.82-5.84,19-.51,5.38-1.27,11.13,1.27,15.79.76,1.62.76,1.08,1.52,1.08l2.29.36c.25,0,.25.18.5.18Z" transform="translate(-230.09 -123.61)"/><path class="cls-2" d="M426.63,185.22c4.32-1.61,3.55,3.95,3.81,7.36.25,3.95,1.27,6.11.51,10.24-.51,2.69-1.53,6.82-3.3,8.43-4.07,3.95-11.17,5.39-13.46-4.49-1.27-5.2,3.81-18.49,12.44-21.54Zm-49.25-7c-1.27.54-.76-.72-1,1.26,1.27,10.77,6.1,23,12.19,35,.76,1.62,3.55,2,5.08.9,1-.54,2-2.69,3.55-4.85.76.9,2.79,6.29,4.57,7s2.79-.54,6.86-6.47c2.53,2.34,8.12,12.57,22.08,3.77,7.37-4.66,7.37-17.23,6.86-25.31-.51-3.41-1.27-5.56-3.56-7.72-1.77-1.79-2.54-2.69-4.82-3.23-.76-.18-3.55-.18-4.82-.36-.51-.9,1-4.49,1.77-6.1,1.27-3.05-7.87,0-8.63.89-3.05,4.31-10.15,15.44-11.93,19.93-2,5-3.56,11.67-3.56,3.23,0-4.84-.25-11.31-2.53-12.2-1.53-.54-2.54-1.8-3.81,2-.51,2-1.78,5.39-2,8.08-1,7-1.27,5.74-2.8-.18-1-3.59-2.28-7.54-3.55-12-1.27-3.23-6.6-3.95-9.9-3.59Z" transform="translate(-230.09 -123.61)"/><path class="cls-2" d="M396.24,277.86c-.8-3.24-5.59-8.26-7.72-10.78-1.86-.35-4.52-3.41-6.11-2.33-4.79,3.23-4.52,28.9-4.52,35.55v3.05c0,.36.26.72.26,1.25l.27.72c.8,2.52,8.51,2.52,9.57,2,3.46-1.26,2.93-7.72,2.66-10.59l-.53-11.85c5.85,0,3.46,9.33,8,7.36.53-.18,2.12-4.49,4.78-5.93,2.66,3.77,1.07,16.88,4.52,20.83,3.46.18,4.52-3.05,5.85-8.44,1.33-5.21,4.26-11.67,4.26-17.05,0-2.52-2.13-3.6-2.13-6.29-1.59-5.74-.8-12.21-2.66-12.21-3.19,0-6.91.72-10.63,5.75-3.2,2.87-1.87,6.46-5.85,9Z" transform="translate(-230.09 -123.61)"/><path class="cls-2" d="M497.21,186.3c4.06.72,5.33,3,7.36,5.21,2.54,2.87,4.06,2,4.32,8.07,0,5-.76,7-3.56,9.16-1.77,1.26-5.58,3.59-8.88,4.13l.76-26.57Zm-12.95-1.44c1,.72,2.54.72,3.81,1.08,0,2.33.25,26.75-.76,28.9-.76,2.34-5.59,4.13,4.57,2.52,10.41-1.62,17.26-2.16,23.35-11.49,3.81-5.93-5.33-17.6-5.84-18.13-5.58-4.49-20.05-10.06-25.13-2.88Z" transform="translate(-230.09 -123.61)"/><path class="cls-2" d="M388.3,252.9c-2,3.77-14.73-.36-11.94,5.75,5.33,2.69,13.21,1.25,15-.54a35.08,35.08,0,0,0,3.05-3.05c2.28-3.41,5.58-8.08,1.52-13.29-2-2-5.84-4-6.34-6.1-.26-.9-1-3.77,2-6.82,5.84-2.7,6.34-1.44,12.44-1.44,1.27-3,0-3.41-2.29-5-7.62-5.38-11.42-3.59-18.53.72-4.83,3.05-7.11,8.44-2.79,12.39,8.37,7.72,12.18,7.54,7.87,17.41Z" transform="translate(-230.09 -123.61)"/><path class="cls-2" d="M417.24,229.21c0-1.8,2-4.67,4.57-4.67,1,1.61,1,2.69,3.55,2.87a8,8,0,0,0,5.08-1.26c.51-4.48-4.82-6.1-8.63-6.64-8.63-1.26-13.46,6.1-16.76,13.11-1.78,3.95-6.09,19.2-3.81,22.44,5.84,9.15,26.15,2.33,27.68.89-1.78-4.3-6.6-.71-9.65,0-9.65,1.44-11.68-6.64-7.36-17,.76-1.62,1.77-3.59,2.53-5.21,1-2.15,2-2.87,2.8-4.48Z" transform="translate(-230.09 -123.61)"/><path class="cls-2" d="M485,216.64c-1-3.41-1-4.31-5.58-3.23-.51-5.57,0-11.49-.26-16.7-.25-5-.25-11.13-.5-17.05-.51-2.34-2.8-3.77-5.59-.18l-2.28,3.41c-1,2-.77,6.64-.51,8.62.25,5.92-4.06,23.15.76,25.67,4.06,2.15,11.17,1.07,14-.54Z" transform="translate(-230.09 -123.61)"/><path class="cls-2" d="M386.29,445.78c-1-1.4-3.8-.35-5.07.25-.24.11-7.54-.2-2,5l.8.76a6.67,6.67,0,0,0,5.36,1.45c3.17-.76,1.55-6.62.94-7.46Zm-29.11-22.46c-1.68.92-1.94-.55-2.41,1.14-.73,2.57.18,4,2.4,3.5,4.31-1,4.24-1.63,4-4.45-.1-1.31-2.09-1.24-4-.19ZM322,403.78l-1.87-.57c-1.88-.57-3,1.74-1.88,4,1,1.94,3,2.73,4.56,1.14,1.81-1.86,1.28-3.92-.81-4.55Zm44.65,27.1c1.08-2.28-2.25-4.3-4.11-2.33-2.58,2.73,3.11,4.45,4.11,2.33Zm-34.18-24.83c.57,1.3,2,1.37,3.36,1.37,3.85,0-5.05-5.22-3.36-1.37Zm4.93,13.16a8.37,8.37,0,0,0,2.68-1.31c1.06-1-.81-1.92-2.63-2.24-2.66-.47-4.69,1.16-3.62,2.49s1.36,1.74,3.57,1.06Zm0,21.86c2.15-2.54-.7-5.69-3.46-5.11-2.23.47-3,.92-3,3.91,0,3.28,3.79,4.31,6.43,1.2ZM312.9,404.35c-1,2.11,1.16,2.92,2.65,1.51s-1.62-3.71-2.65-1.51Zm7.88,11.13a11.82,11.82,0,0,0,3.29.37c1.6-.4,1.47-1.94.2-2.6a3.69,3.69,0,0,0-2.36-.17,5.75,5.75,0,0,0-1.4.48c-1.17.59-1.56,1.45,0,1.86l.25.06Zm50.09,12.21c1,0,2.85,1.42,3.39-.09.47-1.35-1.41-2.84-3.39-2-1.32.56-1,2.09,0,2.09Zm.15,14.76c-1.16,3.27-.42,4.37,3.6,2.23,2.39-1.26-2.37-5.71-3.6-2.23ZM332,411.74c.88-2.36-.79-3.09-2.51-1.26-1.58,1.67,1.47,4,2.51,1.26Zm36.49,28.62c.89-2.36-1.82-3.78-3.54-2s2.51,4.69,3.54,2Zm-93-205.5c-.69-2.59-2.88-2.85-4.7-2.74-3.06.18-5.48,2.61-1,5.58,1.9,1.08,3,1.2,4.22.85,2.14-.61,2-1.51,1.46-3.69Zm4.79,180.38c-.45-2.44-3.82-3-4.94-1.39s.84,4.08,3.46,3.57c1.36-.26,1.74-.76,1.48-2.18ZM262.12,224.69a5.93,5.93,0,0,0-2.18-.91c-2.31-.36-2.16,1.5-1,3.33a1.91,1.91,0,0,0,2.2.76c2-.5,2.61-1.94.95-3.18Zm1.1,21.28c2.3,2.54,3.13,4.29,5.42,2.63,1-.7,2.07-2,1.31-3.2a5.58,5.58,0,0,0-3.05-1.63c-4-1.2-4.47,1.16-3.68,2.2Zm-1.32-12c2,0,2.92-.55,1.31-2.23-1.21-1.25-2.88-1.93-2.7-.1,0,.13,1.08,2.33,1.39,2.33ZM284.29,414.7c-.77.2-1.24.14-1.54.38-1.16.87.46,2.11,1.14,1.82,2.67-1.14.95-2.34.4-2.2Zm7.47-186.16-.81.38c-.27,0-7.25,1.71-1.34,6.45l.8.76c4,2.52,7.4.77,6-4.53-.73-2.85-1.6-4.94-4.7-3.06Zm-9.42.77c2.06,0,3,.18,2-2.51-.55-1.53-2.58-1-3.16,0s-.51,2.49,1.12,2.51Zm-5.88-7.4c-2.34.51-1.19,2.61-.3,2.87a2.23,2.23,0,0,0,2.71-.81c.16-.63-1.77-2.2-2.41-2.06Z" transform="translate(-230.09 -123.61)"/><path class="cls-2" d="M536.71,232.13c2.27-1.6,1.21-2.74-.75-4.81-1.07-1.13-3.11-2.5-4.91-.8-2.74,2.58,1.15,8.8,5.66,5.61Zm.68,7.72c.13,2.16.45,1.83,2,1.83s3.36-4.36,2.6-4.9c-3.16-2.23-4.77.5-4.62,3.07Zm-101.71-77.8a2.5,2.5,0,0,0,2,2.17c1.92.39,3,.3,2.51-1.73a3.27,3.27,0,0,0-3.1-2.73c-1.89,0-1.81.62-1.43,2.29Zm81.85,31.84c-.57,2.82.49,3.65,2.31,4.36,4.27,1.67,3.68-1.89,1.84-4.36-2.64-2.94-4.15,0-4.15,0Zm25.1,66.53c0-1.29-1.84-2.43-2.64-2-.56.3-.45,1.07-.49,1.52-.11,1.12.56,1.84,1.93,1.95s1.19-.05,1.2-1.47Zm-85-84c4.26,1,2.93-2.27,1.16-3a3,3,0,0,0-3.24.41c-1.88,1.31-.09,1.64,2.08,2.6Zm71.28,63.14c1.68-1.27,0-3-1-3.53-.58-.31-1.61-1-2.6-.43s-.6,1.61-.59,2.18a2.69,2.69,0,0,0,4.16,1.78Zm4.85,8.51c-.27-1.93-5-3.5-4.7-.29.25,2.29.89,2.6,2.61,2.32,2.25-.37,2.39,0,2.09-2ZM524.17,223c-.74,2.1,1.05,4.53,3,3.16.92-.65,1.26-1.69,0-3.16-2.1-2.49-3,0-3,0ZM492.89,154.8c-.32-1.55-.88-2.09-2.54-2.27-2.42-.27-3.15-.22-2.4,2.62.35,1.32,1.26,1.91,3,2.29,2.7.59,2.49.21,1.92-2.64Zm-38.58,13c1.26,2,3.17,1.47,3.76-.42-.71-1.45-1.43-2.48-3.41-2.07-.93.19-1.4.85-.35,2.49Zm-18.2-34.93c-.07-1.52-.32-2.3-1.27-2.61-1.34-.45-3.14-.62-3.38,1-.36,2.52.79,3.26,3.45,3.4,1.62.09,1.28-.07,1.2-1.81Zm13.49,32.38c-1.19,0-1.34.17-1.14,1.5.14.86.65,1,1.6,1,1.39-.05,2-1,1.63-1.63a3,3,0,0,0-2.09-.85Zm48.08,13.57c.37,2,3.56,1.65,4.32.62.57-.78-.93-2.08-2.19-2.42-1.89-.51-2.48-.07-2.13,1.8Zm-54.28-7.23c-.58-.33-1.2-.67-1.23-.67-.87-.1-1.63.33-1,1.68s1.41,2.29,3.11,1.79c2.58-.77,0-2.35-.84-2.8Zm29.33,2.89a2.78,2.78,0,0,0,3,.57c1.22-.52-1.44-2.87-2.41-2.58-1.22.37-1.46,1-.64,2Zm57.32,38.72c-.7-3-1.07-3.38-4.28-3.58-2.94-.19-2.55-.11-2.36,3,.16,2.78-.24,2.63,3.41,3.06,2.72.32,3.65-.63,3.23-2.46Zm-21.33-43.4c.92-1.86-.4-2.61-3.82-3.55-1.85-.5-.84,4.68,1.28,4.34.41-.06,2.23-.14,2.54-.79Zm-39.18-21.48c-.12-1.11-.66-1.12-2.29-1.24-2.37-.18-1.74,1.57-.72,2.51,1.77,1.63,3.25,1.16,3-1.27ZM538,269.18c.74.41,3,1,2.3-.64-.6-1.38-.17-2.51-2.3-1.61-1.42.6-.93,1.73,0,2.25Z" transform="translate(-230.09 -123.61)"/><path class="cls-3" d="M327.05,319.52h0Zm.28,40.05s-2.64-2.05-1.82-3l1.82,3Zm-9.26,5.86c-2.48-.95-5.84-1.22-7.71-.5l.47.84,1.25,1.73,1.44-.14a5.37,5.37,0,0,1,1.93.44s2.36-2.47,2.62-2.37ZM326,260.91a3.13,3.13,0,0,0-.67.56,5.1,5.1,0,0,0-.43,1,2.78,2.78,0,0,1-.34,1,3.41,3.41,0,0,1-.73.63,46.91,46.91,0,0,1,4.91.49l-.05,0a3.1,3.1,0,0,0,.79-.57,2.59,2.59,0,0,0,.43-.94,4.8,4.8,0,0,1,.52-1,2.93,2.93,0,0,1,.73-.49h0a51.06,51.06,0,0,0-5.13-.72l0,0Zm6.62,1a3.13,3.13,0,0,0-.75.47,5.18,5.18,0,0,0-.55.94,2.72,2.72,0,0,1-.47.93,3.08,3.08,0,0,1-.8.53,47.85,47.85,0,0,1,4.8,1.13l0,0a3.31,3.31,0,0,0,.85-.46,2.7,2.7,0,0,0,.55-.88,5.26,5.26,0,0,1,.64-.88,3,3,0,0,1,.79-.39h0a51.72,51.72,0,0,0-5-1.38l0,0Zm6.42,1.88a3,3,0,0,0-.79.37,4.29,4.29,0,0,0-.68.85,2.51,2.51,0,0,1-.58.86,3.33,3.33,0,0,1-.87.43,47.05,47.05,0,0,1,4.61,1.74l0,0a3.29,3.29,0,0,0,.9-.35,2.62,2.62,0,0,0,.66-.8,5.2,5.2,0,0,1,.75-.79,3.08,3.08,0,0,1,.83-.28h0q-2.32-1.12-4.77-2l0,0Zm6.13,2.7a2.92,2.92,0,0,0-.84.26,4.62,4.62,0,0,0-.78.76,2.84,2.84,0,0,1-.69.78,3.29,3.29,0,0,1-.91.31h0a48.69,48.69,0,0,1,4.34,2.32l0,0a3.31,3.31,0,0,0,.94-.23,2.75,2.75,0,0,0,.76-.7,4.37,4.37,0,0,1,.85-.69,3,3,0,0,1,.86-.18h0a50.67,50.67,0,0,0-4.46-2.63l0,0Zm5.72,3.47a3.09,3.09,0,0,0-.87.15,4.54,4.54,0,0,0-.87.66,2.74,2.74,0,0,1-.79.68,3,3,0,0,1-.94.18,48.38,48.38,0,0,1,4,2.88l0,0a3.42,3.42,0,0,0,.95-.1,3,3,0,0,0,.86-.6,4.19,4.19,0,0,1,.92-.57,2.84,2.84,0,0,1,.88-.07h0a51.24,51.24,0,0,0-4.08-3.19Zm5.22,4.2a3,3,0,0,0-.88,0,4.65,4.65,0,0,0-1,.54,3,3,0,0,1-.87.57,3.45,3.45,0,0,1-1,.06,47.8,47.8,0,0,1,3.59,3.37l0,0a3.42,3.42,0,0,0,1,0,2.74,2.74,0,0,0,.92-.48,4.24,4.24,0,0,1,1-.44,2.78,2.78,0,0,1,.88.05h0q-1.71-1.92-3.63-3.69Zm4.62,4.84a2.93,2.93,0,0,0-.87-.09,4.87,4.87,0,0,0-1,.41,2.74,2.74,0,0,1-.94.45,3.32,3.32,0,0,1-1-.06h0a48.92,48.92,0,0,1,3.12,3.81v0a3.4,3.4,0,0,0,.95.15,2.68,2.68,0,0,0,1-.36,4.66,4.66,0,0,1,1-.31,2.78,2.78,0,0,1,.86.16h0a51.5,51.5,0,0,0-3.13-4.13Zm4,5.39a3.07,3.07,0,0,0-.86-.19,4.52,4.52,0,0,0-1.05.27,2.81,2.81,0,0,1-1,.33,3.41,3.41,0,0,1-.95-.19,44.73,44.73,0,0,1,2.6,4.19v-.05a3.45,3.45,0,0,0,.93.28,2.63,2.63,0,0,0,1-.24,5,5,0,0,1,1.08-.17,3,3,0,0,1,.83.28h0q-1.17-2.3-2.56-4.5Zm3.22,5.87a3.16,3.16,0,0,0-.83-.3,4.8,4.8,0,0,0-1.08.13,2.73,2.73,0,0,1-1,.19,3.23,3.23,0,0,1-.91-.3,48.58,48.58,0,0,1,2,4.49v-.05a3.39,3.39,0,0,0,.88.39,2.8,2.8,0,0,0,1-.09,4.5,4.5,0,0,1,1.09,0,3,3,0,0,1,.79.38h0a47.29,47.29,0,0,0-1.95-4.8l0,0Zm2.42,6.24a2.73,2.73,0,0,0-.78-.4,4.89,4.89,0,0,0-1.09,0,2.65,2.65,0,0,1-1,.06,3,3,0,0,1-.86-.42c.56,1.56,1,3.13,1.43,4.72v0a3.27,3.27,0,0,0,.82.5,2.66,2.66,0,0,0,1,0,4.52,4.52,0,0,1,1.08.12,2.78,2.78,0,0,1,.74.48h0a49.4,49.4,0,0,0-1.31-5l0,0Zm1.59,6.51a3.13,3.13,0,0,0-.72-.51,4.47,4.47,0,0,0-1.08-.15,3,3,0,0,1-1-.08,3.26,3.26,0,0,1-.8-.54,48.43,48.43,0,0,1,.8,4.87v-.05a3,3,0,0,0,.75.61,2.93,2.93,0,0,0,1,.18,4,4,0,0,1,1.06.25,2.72,2.72,0,0,1,.67.57h0c-.13-1.71-.34-3.43-.64-5.14l0,0Zm.72,6.65a3,3,0,0,0-.64-.59,4.6,4.6,0,0,0-1.05-.3,2.73,2.73,0,0,1-1-.21,3.17,3.17,0,0,1-.73-.64h0a48,48,0,0,1,.16,4.93l0,0a3.17,3.17,0,0,0,.66.7,2.87,2.87,0,0,0,1,.31,4.09,4.09,0,0,1,1,.39,3.08,3.08,0,0,1,.59.65h0a49.71,49.71,0,0,0,0-5.18l0,0Zm-.15,6.69a2.83,2.83,0,0,0-.56-.67,4.63,4.63,0,0,0-1-.43,2.67,2.67,0,0,1-1-.34,3.32,3.32,0,0,1-.64-.73,46.64,46.64,0,0,1-.49,4.91l0,0a3.27,3.27,0,0,0,.56.78,2.63,2.63,0,0,0,1,.43,5,5,0,0,1,.95.52,3.08,3.08,0,0,1,.5.73h0a48,48,0,0,0,.72-5.13l0,0Zm-1,6.62a3,3,0,0,0-.47-.74,4.58,4.58,0,0,0-.93-.56,2.75,2.75,0,0,1-.94-.47,3.08,3.08,0,0,1-.53-.8h0a47.82,47.82,0,0,1-1.12,4.8l0,0a3.31,3.31,0,0,0,.46.85,2.74,2.74,0,0,0,.88.56,4.42,4.42,0,0,1,.88.63,3.1,3.1,0,0,1,.4.79h0a49.14,49.14,0,0,0,1.37-5l0,0Zm-1.75,6.48a2.79,2.79,0,0,0-.31-.82,4.76,4.76,0,0,0-.8-.73,2.75,2.75,0,0,1-.82-.65,3,3,0,0,1-.36-.89,49.28,49.28,0,0,1-2.07,4.48l0,0a3.38,3.38,0,0,0,.28.92,2.84,2.84,0,0,0,.75.73,4.56,4.56,0,0,1,.74.8,3.11,3.11,0,0,1,.22.85h0a48.72,48.72,0,0,0,2.36-4.61l0,0Zm-2.82,6.07a3.31,3.31,0,0,0-.26-.84,5.13,5.13,0,0,0-.77-.78,2.68,2.68,0,0,1-.77-.69,3,3,0,0,1-.31-.91,48.59,48.59,0,0,1-2.33,4.34l0,0a3.11,3.11,0,0,0,.22.94,2.62,2.62,0,0,0,.71.76,5.06,5.06,0,0,1,.68.85,3,3,0,0,1,.18.86h0a48.32,48.32,0,0,0,2.63-4.46v0Zm-3.48,5.72a3,3,0,0,0-.15-.86,4.91,4.91,0,0,0-.65-.87,2.7,2.7,0,0,1-.68-.79,3.33,3.33,0,0,1-.19-.95q-1.35,2.08-2.88,4l.05,0a3.3,3.3,0,0,0,.09,1,2.74,2.74,0,0,0,.61.85,4.42,4.42,0,0,1,.56.93,2.77,2.77,0,0,1,.07.87h0a50.9,50.9,0,0,0,3.19-4.09v0Zm-4.2,5.22a2.71,2.71,0,0,0,0-.88,4.58,4.58,0,0,0-.53-1,2.53,2.53,0,0,1-.57-.87,3.21,3.21,0,0,1-.07-1,46.09,46.09,0,0,1-3.37,3.6l.05,0a3.15,3.15,0,0,0,0,1,2.65,2.65,0,0,0,.48.92,4.84,4.84,0,0,1,.45,1,3.09,3.09,0,0,1,0,.87h0a50.51,50.51,0,0,0,3.69-3.63v0Zm-4.83,4.63a3.14,3.14,0,0,0,.08-.88,4.87,4.87,0,0,0-.41-1,2.74,2.74,0,0,1-.45-.94,3.32,3.32,0,0,1,.06-1,45.21,45.21,0,0,1-3.81,3.13l0,0a3.2,3.2,0,0,0-.16.95,2.87,2.87,0,0,0,.37,1,4.6,4.6,0,0,1,.3,1,2.8,2.8,0,0,1-.16.87h0q2.13-1.45,4.14-3.12v0Zm-5.4,3.95a3.07,3.07,0,0,0,.19-.85,4.47,4.47,0,0,0-.27-1.06,2.56,2.56,0,0,1-.32-1,3.12,3.12,0,0,1,.18-.94c-1.36.94-2.76,1.81-4.18,2.6h0a3.22,3.22,0,0,0-.27.92,2.69,2.69,0,0,0,.23,1,4.83,4.83,0,0,1,.17,1.07,3,3,0,0,1-.28.84h0a50.39,50.39,0,0,0,4.5-2.56v0Zm-5.87,3.22a3,3,0,0,0,.3-.82,4.19,4.19,0,0,0-.13-1.08,2.78,2.78,0,0,1-.19-1,3.16,3.16,0,0,1,.31-.91,47.42,47.42,0,0,1-4.5,2H339a4.67,4.67,0,0,0-.44.86,2.77,2.77,0,0,0,0,1.06,4.18,4.18,0,0,1-.13,1.09,5.22,5.22,0,0,1-.34.89c1.62-.56,3.52-1.32,5.1-2.05v0Zm-6.62,2.39a6.41,6.41,0,0,0,.21-.64,3.28,3.28,0,0,0,.12-.93c0-.29-.24-.52-.12-.93a5.75,5.75,0,0,1,.59-1.26,39.11,39.11,0,0,0-5.3,2.19l-.67.34a3,3,0,0,0-.22,1c0,.31-.07.79-.06,1.11a3.76,3.76,0,0,1-.65,1.66,18.35,18.35,0,0,0,5.26-2.11l.84-.43ZM304,360a3,3,0,0,0,.8-.37,4,4,0,0,0,.67-.86,2.82,2.82,0,0,1,.59-.86,3,3,0,0,1,.86-.42q-2.36-.76-4.61-1.74l0,0a3.09,3.09,0,0,0-.9.34,2.69,2.69,0,0,0-.67.81,4.31,4.31,0,0,1-.75.78,2.87,2.87,0,0,1-.83.29h0a51.67,51.67,0,0,0,4.77,2l0,0Zm-6.12-2.7a2.92,2.92,0,0,0,.84-.26,4.59,4.59,0,0,0,.77-.76,2.76,2.76,0,0,1,.7-.78,3.29,3.29,0,0,1,.91-.31,46.15,46.15,0,0,1-4.34-2.33l0,0a3.11,3.11,0,0,0-.94.22,2.63,2.63,0,0,0-.76.71,5.05,5.05,0,0,1-.85.69,2.9,2.9,0,0,1-.86.17h0c1.44.94,2.93,1.82,4.47,2.62Zm-5.72-3.48a2.86,2.86,0,0,0,.86-.14,4.54,4.54,0,0,0,.87-.66,3,3,0,0,1,.79-.68,3.33,3.33,0,0,1,1-.19,46.2,46.2,0,0,1-4-2.87l0,0a3.08,3.08,0,0,0-1,.1,2.61,2.61,0,0,0-.85.6,5,5,0,0,1-.93.57,3,3,0,0,1-.87.06h0a51.29,51.29,0,0,0,4.09,3.18Zm-5.22-4.19a3,3,0,0,0,.88,0,4.34,4.34,0,0,0,.94-.54,2.73,2.73,0,0,1,.88-.57,3,3,0,0,1,1-.06A48.08,48.08,0,0,1,287,345l0,0a3.15,3.15,0,0,0-1,0,2.65,2.65,0,0,0-.92.49,4.3,4.3,0,0,1-1,.44,3.09,3.09,0,0,1-.87-.05h0a48.72,48.72,0,0,0,3.64,3.69Zm-4.62-4.85a2.71,2.71,0,0,0,.87.08,4.6,4.6,0,0,0,1-.4,2.66,2.66,0,0,1,.94-.46,3.12,3.12,0,0,1,1,.07,49.07,49.07,0,0,1-3.12-3.82v0a3.4,3.4,0,0,0-.95-.15,2.75,2.75,0,0,0-1,.36,4.51,4.51,0,0,1-1,.31,3,3,0,0,1-.86-.17h0a49.12,49.12,0,0,0,3.12,4.13Zm-4-5.4a3.06,3.06,0,0,0,.86.2,4.57,4.57,0,0,0,1.05-.28,3.11,3.11,0,0,1,1-.32,3,3,0,0,1,.95.19,46.92,46.92,0,0,1-2.6-4.19V335a3.43,3.43,0,0,0-.92-.28,2.84,2.84,0,0,0-1,.23,4.32,4.32,0,0,1-1.08.17,3.1,3.1,0,0,1-.83-.27h0a51.37,51.37,0,0,0,2.55,4.5Zm-3.21-5.87a3,3,0,0,0,.82.31,4.78,4.78,0,0,0,1.08-.14,2.78,2.78,0,0,1,1-.19,3.16,3.16,0,0,1,.91.31,46.15,46.15,0,0,1-2-4.49v.05a3.23,3.23,0,0,0-.88-.4,3,3,0,0,0-1,.1,4.5,4.5,0,0,1-1.09,0,3,3,0,0,1-.78-.38h0q.86,2.43,1.95,4.8Zm-2.42-6.24a3,3,0,0,0,.77.41,4.38,4.38,0,0,0,1.09,0,2.86,2.86,0,0,1,1-.06,3.19,3.19,0,0,1,.86.43,47.27,47.27,0,0,1-1.42-4.72v.05a3.09,3.09,0,0,0-.82-.5,2.66,2.66,0,0,0-1,0,5.1,5.1,0,0,1-1.08-.12,2.93,2.93,0,0,1-.73-.48h0a50,50,0,0,0,1.3,5Zm-1.59-6.5a3,3,0,0,0,.71.51,4.47,4.47,0,0,0,1.08.15,2.74,2.74,0,0,1,1,.08,3.2,3.2,0,0,1,.8.53c-.35-1.62-.61-3.24-.8-4.86v.05a3.09,3.09,0,0,0-.74-.61,3,3,0,0,0-1-.18,4.58,4.58,0,0,1-1.06-.25,3.08,3.08,0,0,1-.66-.57h0a47.47,47.47,0,0,0,.64,5.14l0,0Zm-.73-6.65a2.86,2.86,0,0,0,.65.59,4.33,4.33,0,0,0,1.05.3,2.81,2.81,0,0,1,1,.21,3.35,3.35,0,0,1,.72.63,47.75,47.75,0,0,1-.16-4.92v0a3.36,3.36,0,0,0-.67-.7,2.87,2.87,0,0,0-1-.31,4.09,4.09,0,0,1-1-.39,2.94,2.94,0,0,1-.58-.65h0c-.1,1.72-.11,3.44,0,5.18l0,0Zm.15-6.7a3.1,3.1,0,0,0,.56.68,5.1,5.1,0,0,0,1,.43,2.78,2.78,0,0,1,1,.34,3.41,3.41,0,0,1,.63.73c.08-1.66.25-3.29.49-4.91l0,0a3.1,3.1,0,0,0-.57-.79,2.59,2.59,0,0,0-.94-.43,4.8,4.8,0,0,1-1-.52,2.93,2.93,0,0,1-.49-.73h0a50.65,50.65,0,0,0-.71,5.13l0,0Zm1-6.61a2.81,2.81,0,0,0,.46.74,5,5,0,0,0,.94.56,2.72,2.72,0,0,1,.93.47,3.27,3.27,0,0,1,.54.8,47.82,47.82,0,0,1,1.12-4.8l0,0a3.18,3.18,0,0,0-.46-.85,2.7,2.7,0,0,0-.88-.55,5.71,5.71,0,0,1-.88-.64,3,3,0,0,1-.39-.79h0a50.93,50.93,0,0,0-1.38,5l0,0Zm1.87-6.42a3,3,0,0,0,.37.79,4.61,4.61,0,0,0,.85.68,2.54,2.54,0,0,1,.87.58,3.47,3.47,0,0,1,.42.87q.76-2.37,1.74-4.62l0,0a3.44,3.44,0,0,0-.34-.9,3,3,0,0,0-.8-.67,4.47,4.47,0,0,1-.8-.75,2.94,2.94,0,0,1-.28-.82h0q-1.12,2.32-2,4.77l0,0Zm2.7-6.13a2.92,2.92,0,0,0,.26.84,5,5,0,0,0,.76.78,2.71,2.71,0,0,1,.78.69,3.29,3.29,0,0,1,.31.91,46.32,46.32,0,0,1,2.33-4.34l0,0a3.49,3.49,0,0,0-.22-.94,2.92,2.92,0,0,0-.71-.76,4.37,4.37,0,0,1-.69-.85,2.9,2.9,0,0,1-.17-.86h0a50.58,50.58,0,0,0-2.62,4.46v0Zm3.48-5.72a3,3,0,0,0,.14.87,4.54,4.54,0,0,0,.66.87,2.74,2.74,0,0,1,.68.79,3.22,3.22,0,0,1,.19.94,46,46,0,0,1,2.87-4l0,0a3.42,3.42,0,0,0-.1-.95,3,3,0,0,0-.6-.86,4.6,4.6,0,0,1-.57-.92,3.06,3.06,0,0,1-.06-.88h0a50.63,50.63,0,0,0-3.18,4.08v0Zm4.19-5.22a3,3,0,0,0,0,.88,4.65,4.65,0,0,0,.54.95,3,3,0,0,1,.57.87,3.45,3.45,0,0,1,.06,1h0c1.07-1.26,2.2-2.46,3.37-3.59l0,0a3.56,3.56,0,0,0,0-1,2.89,2.89,0,0,0-.49-.93,4.24,4.24,0,0,1-.44-1,2.78,2.78,0,0,1,.05-.88h0q-1.92,1.71-3.69,3.63v0Zm4.84-4.62a2.93,2.93,0,0,0-.09.87,4.66,4.66,0,0,0,.41,1,2.66,2.66,0,0,1,.45.94,3.32,3.32,0,0,1-.06,1q1.84-1.67,3.81-3.12h-.05a3.2,3.2,0,0,0,.16-.95,2.75,2.75,0,0,0-.36-1,4.66,4.66,0,0,1-.31-1,3.13,3.13,0,0,1,.16-.86h0a49.12,49.12,0,0,0-4.13,3.12v0Zm5.4-4a3.06,3.06,0,0,0-.2.86,4.52,4.52,0,0,0,.27,1.05,2.81,2.81,0,0,1,.33,1,3.41,3.41,0,0,1-.19.95,46.92,46.92,0,0,1,4.19-2.6h-.05a3.24,3.24,0,0,0,.27-.93,2.65,2.65,0,0,0-.22-1,4.32,4.32,0,0,1-.17-1.08,2.77,2.77,0,0,1,.27-.83h0a51.53,51.53,0,0,0-4.51,2.55v0Zm5.87-3.21a3,3,0,0,0-.31.82,4.74,4.74,0,0,0,.13,1.08,3,3,0,0,1,.2,1,3.56,3.56,0,0,1-.31.92,46.15,46.15,0,0,1,4.49-2h-.05a3.39,3.39,0,0,0,.39-.88,2.8,2.8,0,0,0-.09-1,4.5,4.5,0,0,1,0-1.09,3,3,0,0,1,.38-.79h0a50.78,50.78,0,0,0-4.8,1.95v0Zm6.24-2.42a2.57,2.57,0,0,0-.41.77,4.89,4.89,0,0,0,0,1.09,2.65,2.65,0,0,1,.06,1,3,3,0,0,1-.42.86,47.27,47.27,0,0,1,4.72-1.42H310a3.09,3.09,0,0,0,.5-.82,2.66,2.66,0,0,0,0-1,4.52,4.52,0,0,1,.12-1.08,2.67,2.67,0,0,1,.48-.73h0a49.85,49.85,0,0,0-5,1.3v0Zm6.5-1.59a3,3,0,0,0-.51.71,4.47,4.47,0,0,0-.15,1.08,3,3,0,0,1-.08,1,3.07,3.07,0,0,1-.54.8,48.43,48.43,0,0,1,4.87-.8h-.05a3.09,3.09,0,0,0,.61-.74,3,3,0,0,0,.18-1,4.12,4.12,0,0,1,.25-1.06,3,3,0,0,1,.57-.67h0c-1.71.13-3.43.34-5.14.64l0,0Zm6.65-.73a3,3,0,0,0-.59.64,4.6,4.6,0,0,0-.3,1.05,2.73,2.73,0,0,1-.21,1,3.28,3.28,0,0,1-.63.73,47.75,47.75,0,0,1,4.92-.16l0,0a3.17,3.17,0,0,0,.7-.66,2.64,2.64,0,0,0,.3-1,4.52,4.52,0,0,1,.4-1,2.94,2.94,0,0,1,.65-.58h0c-1.72-.1-3.45-.11-5.18,0l0,0Zm-12.43,99s.54,2.77,2.36,2.85c.34-1.13,1.89-2.47,2.83-3.13l.35-.41a4.82,4.82,0,0,1,.74-3.54l-1,.24a8.94,8.94,0,0,0-5.3,4l0,0Zm3.28,9.14a2.07,2.07,0,0,0,.86-.58h0a5.25,5.25,0,0,1-2-4.26c-2.31-.27-2.82-2.88-2.82-2.88h0a8.77,8.77,0,0,0-.53,2.82,8.59,8.59,0,0,0,1.41,4.88h0a7.61,7.61,0,0,0,3.08,0Zm5,.45a5.47,5.47,0,0,1-1,.08,5.23,5.23,0,0,1-1.82-.37h0c-.49,1.57-4.07,1.23-4.07,1.23a8.92,8.92,0,0,0,4.83,2.4l0,0s2-.43,2.09-3.34l0,0Zm1.08-.18.06-.05,1.53.35a11.61,11.61,0,0,1,3.4,1.16S318,373.7,315.1,373a3.35,3.35,0,0,0,1.19-3.84l-.06.05Zm9.6-.73c-2.17-1.73-4.27-2-5.87-2.56l-3.16,2.22,3.78,1.26c1.14.29,1.43.84,2.87,1.77,0,0,3.34-1.92,2.38-2.69Zm6.48,3.2a5.5,5.5,0,0,1-3.25,1.3,7.22,7.22,0,0,1-4.43-1.09s2.78-1.86,2.66-2.81c.63.17,2.57.49,3.08.15a5.77,5.77,0,0,0,1.94,2.45Zm-5-12.07c1.43-1.18,2.7-1.65,3.67-1.35a37.23,37.23,0,0,1,3.88-1.56c-1.31-1.48-2.66-1.78-4.94-1.69-1,0-4.17,1.19-4.66,1.89l2.05,2.71Zm-1.06.71s-2.19-1.85-1.77-3.16c-2.45,2.15-3.44,3.23-5.46,3.23-.51.08-.07,0-.07,0a3.37,3.37,0,0,0-.5,1,4,4,0,0,0-.22.93,4.44,4.44,0,0,0,.05,1.1,8.35,8.35,0,0,0,4.09-.34,8.77,8.77,0,0,0,2.74-1.81c.24-.23.92-.74,1.14-1Zm-9,3.25s-.25,0,0-1.3a5.87,5.87,0,0,1,.34-.93,3,3,0,0,1,.51-1h0l-.61,0a32.81,32.81,0,0,1-4.11-.6h0a3.08,3.08,0,0,0-1.37.9c-.14.29-.42.39-.6.58s-.6.72-.6.72h0a18.39,18.39,0,0,0,6.42,1.58Zm-2-7.7c.26-.42.8-.27,1.19-.32,2-.22,4.79,1.11,5.35,2.39l-.89.68a4,4,0,0,1-1.84.78l-.5-.18a6.72,6.72,0,0,0-2.27-.38,5.93,5.93,0,0,0-2.11.05c-.75-.78,1.07-3,1.07-3ZM307.1,370.5c-.71.52-1.17.93-1.17.93l-.72.7,0,0s-2.31-2.71-4.11-1.14h0c.76-1,1.44-1.83,1.82-2.21a6,6,0,0,1,1.58-1.2l-.2.13a5.58,5.58,0,0,1,.75-.3,5.13,5.13,0,0,0,2,3.11Zm-7.18,2c2.36-1.94,4.29.63,4.29.63l-1.76,1.69-2.53-2.32Zm1.46,3.38.32-.37-2.32-2.24-.32.37,2.32,2.24ZM298.46,374a13.06,13.06,0,0,0-1.33,1l2.6,3.05,1.08-1.63L298.46,374Zm43.06.83a11.16,11.16,0,0,1,1.29,1l-2.71,2.94-1-1.66,2.44-2.32Zm-.7-.39-.34-.35-2.41,2.14.34.35,2.41-2.14Zm-.7-1.24c-2.28-2-4.31.47-4.31.47l1.69,1.76,2.62-2.23Zm-4.41-5.07c-3.09-1.67-4.75.72-4.75.72a10.66,10.66,0,0,1,3.4,3l.49.8,0,0s2.42-2.61,4.16-1h0c-.73-1-1.38-1.84-1.74-2.24a11.3,11.3,0,0,0-1.53-1.3Zm-11.56-5c-.26.11,1.64.79,4.67.35l0,0a3,3,0,0,0,.53-.7,5.62,5.62,0,0,0,.33-1.16c0-.29.11-.48.12-.88A2.77,2.77,0,0,1,330,360c-.34.18-2.15.79-2.15.79-.49.12-.83.18-.83.18-.28.21-.49.47-.72.65l-.88.74c-.2.16-1.13.72-1.24.82Zm12.69,4.27c1.88-2.13,1.08-4.66.74-5.89l-3.69,1.69a2.12,2.12,0,0,1-.42,2.4s3.58,1.56,3.37,1.8Zm-7.19.93s2.49-2.32,4.07-1.61l-.36-.31a8.6,8.6,0,0,0-4.85-1.73c-1.54-.05-4.23.4-4.84,1.4a8.15,8.15,0,0,1,3.76,1.93c.13.13.74,0,2.22.32Zm-15.57-48.65H314a51.94,51.94,0,0,0-5.89.79c-1-3.75-3.69-8.59-8.38-7.91-4,.58-5.71,4.71-4.74,8.38-5.73.79-10.55-3.85-11.7-9.14-1.72-7.91,4-15.87,12.38-15.86,11.71,0,18,15.46,18.41,23.73ZM291.61,311l1.48-3,3.27.5L294,306.19l1.48-3-2.94,1.52-2.36-2.32.55,3.26-2.94,1.52,3.27.5.54,3.26Zm37.32,8.76c.39-8.27,6.7-23.71,18.42-23.73,8.34,0,14.1,8,12.37,15.86-1.15,5.29-6,9.94-11.7,9.14,1-3.67-.72-7.79-4.73-8.38-4.7-.67-7.42,4.16-8.37,7.88-2-.4-4.21-.59-5.91-.75l-.08,0ZM351.4,311l.54-3.27,3.27-.49-2.93-1.52.54-3.27-2.36,2.32-2.94-1.52,1.49,3-2.36,2.32,3.27-.49,1.48,3Zm-29.91,15.75c-8.75,0-15.84-1.29-15.84-2.89s7.09-2.89,15.84-2.89,15.84,1.3,15.84,2.89-7.09,2.89-15.84,2.89Zm0-1.71c7.57,0,13.67-.71,13.67-1.18s-6.14-1.22-13.71-1.22-13.7.75-13.7,1.22S314,325,321.53,325Zm12.85,2.25a54.17,54.17,0,0,1-5.53.8l0,0c.38,3.48,3.26,11,8.18,11,3.62,0,6.43-3.16,6.71-6.62-4.23,2-8.54-.08-9.42-5.13Zm-20.29.8a53.79,53.79,0,0,1-5.46-.78v0c-.83,5.13-5.18,7.26-9.44,5.23.29,3.46,3.1,6.63,6.71,6.63,5,0,7.85-7.61,8.2-11.06v0Zm7.4-56.21a55.46,55.46,0,0,0,6.33,5.48c5.4,4.06,7.94,9.62,8,14.48.07,9-7.51,16.88-8.45,27.74a47.43,47.43,0,0,0-4.89-.27c.2-11-.22-25.93-1-36.7-.74,10.77-1.16,25.69-1,36.7a47.23,47.23,0,0,0-4.88.27c-.95-10.86-8.52-18.75-8.45-27.74,0-4.86,2.57-10.42,8-14.48a55.46,55.46,0,0,0,6.33-5.48Zm0,77.18c4.22-1.85,8.57-5.78,10.43-9.83a24.63,24.63,0,0,1-4.47-11c-1.55.11-3.19.18-4.9.18-.22,2.92-.21,9.14-1.06,12.5-.85-3.36-.84-9.58-1.05-12.5-1.71,0-3.35-.07-4.9-.18a24.75,24.75,0,0,1-4.47,11c1.86,4,6.2,8,10.42,9.83Z" transform="translate(-230.09 -123.61)"/><path class="cls-4" d="M349.91,196.83l-2.68-4.05c1.19-4,3.3-5.43,7.63-7.61,21.4-10.8,7.31,13.31-4.95,11.66Zm4-21.08c.48-4.32,2.56-6.8,4.37-9.33,1.31-1.83,6-5.07,6.29-7.69.28-2.43-.19-5.51-2-9.81-7,2.74-17.82,17.31-20.25,24.72-4.86,14.8-4.23,19.08,5.38,29.55,23.85.13,28.39-25.37,22.93-29.81-6.73-2.84-11.75.39-16.74,2.37Zm-20.56,28c1-7.75,7.31-40.62,5.87-45.21-1-3.12-4.95-8.56-9.24-9.8-2,3.21-11.27,22.68-11.94,27.49l6.37,2.55c3-1.68,1.47-1.46,3.85-4-.3,6-2.1,10.9-2,17.58.13,8.12-1.27,9.79,7.09,11.42Z" transform="translate(-230.09 -123.61)"/><path class="cls-5" d="M388.61,164.17c-.47,4.21-1.45,6.73-.74,8.41.54,1.28,2.87,1.95,5.71,1.3.72-3.27,1.35-8.36,1.85-12.37l4.12-.55c.37,3.36.5,10,2.81,12,2,.71,2.95.28,3.43-.72.68-1.44.33-4,.44-6.09l.13-6.56c1.18-.36,2.14-.06,2.34-2.66.28-1.47-1-1.17-2-1.23-.2-1.84,1.78-5.07,1.07-7.45-5.95-.58-6.75,2.84-7.23,8l-5.46.44c.37-3.3.41-5.82-1.41-7-.06-.16-.12-.33-.2-.51-1.1-2.32-3.83-2.32-6.38-2.07-6.38.78-10.9,1.52-16.91,3.84-2.21,1-2.75,2.91-1.09,3.09,1.45.26,4.75,1.18,5.66,2.47,1,1.65.64,9.55,1.2,14.85.71,6.83,3.13,1.89,4.63.62,2-2.06,1.46-8.52,1.46-11.74.36-4.12-3.15-4.25,5.6-6.31l1-.28c-.07,1.17,0,2.44-.07,4.55-1,.66-3.39,2-.91,3.12.68.32.85-.15.94,2.91Z" transform="translate(-230.09 -123.61)"/><path class="cls-6" d="M460.17,371.17c.76,1.79,1,5.73,1.52,8.05l-3-.53,1.52-7.52ZM397.38,376c.76-3.94,3.29-7,4.55-9.13,1-2.15,1-1.79,1.78-2.15.76,1.61,0,4.66,0,5.37,0,1.79-5.57,5.55-6.33,5.91Zm74.17-29.39M459.4,359.14c-7.09,1.25-10.13,25.42-10.13,29.36A11.77,11.77,0,0,0,445,388l-.76-27.76c-2.54-.35-4.82-1.25-6.08,3.05l-1,15c0,3-.51,5-.51,8.23-2.28-1.25-3.29-.89-5.82-.36-2.28.54-5.32,2.15-8.11,1.8l-1.52-9.14c2-.71,7.35-1.61,9.88-2.32,1.26-.36,1.26-1.08,1.26-1.44,0-.71,0-1.25-1.51-1.25-2.54,0-7.09.9-9.37.72-1.77-18.26,7.34-8.42,11.9-13.07-2.79-1.79-5.83-.9-9.88-.72-9.87.72-10.63-1.07-9.87,22.74-4.05-4.12-4.31-4.3-7.85-6.62,2-2.15,8.61-9,3.29-12.72-4.05-3-8.1-6.08-13.42-1.61-3.29,2.69-5.06,13.07-5.06,20.95,0,4.48-.51,8.41,1,10h4c3-4.66,2.79-4.84,3-11.1,6.08-2.33,5.82-1.8,8.61,1.43a19.33,19.33,0,0,1,1.27,2c.75,1.43,2.78,7.16,4.3,5.37.76-.9.76-2.51,1.52-4.3,1.26,7.16,2.28,7.7,9.37,5.73,4.3-1.25,9.87-1.79,12.91-4.12,1,2,.51,3.23,3.29,3.76,4.81,1.26,7.09.18,9.12-.18s3.79,1.61,8.1.36l1.26-9.67,4.06,1.08c1,2.68,2,6.08,2.78,8.41,2,.9,2,.9,3.8,0,.76-2.68-1.27-22-3-27.21-1.52-4.48-3-5.91-3.93-5.68m4.18-32.64" transform="translate(-230.09 -123.61)"/><path class="cls-6" d="M478.15,378a47.72,47.72,0,0,1,1.52,5.55,27.79,27.79,0,0,0,2.53,7c2.53,4.66,5.06,2.87,6.07-.36a40.21,40.21,0,0,0,1.27-10c0-7.16,1-15.94.51-18.62l-3.55.89c-1.52,1.79-3.29,10.21-3.54,13.07-1.27-1.25-1.77-8-2.28-9.84-.76-2,0-.9-1.52-2.15a6,6,0,0,0-5.32-.9c-1.77,3.05-2.53,10.57-3.29,14.68l-.76,13.07v2l.51,1.79a5.12,5.12,0,0,0,4.56-.53c2.53-2,1.51-12.36,3.29-15.58Z" transform="translate(-230.09 -123.61)"/><path class="cls-6" d="M500.43,366.15c2.78.18,5.32,2.69,6.83,4.3,8.61,9.31-1.26,17.73-6.58,17.73l-.25-22Zm-6.84,21.67c0,4.83-1.26,1.43-1.77,5.19,9.37-.72,17.72-2,22.79-9.31,4.81-7-3-16.47-8.36-19.52-3-2-11.9-2.68-14.68-1.43a4.41,4.41,0,0,0-2,2.33l3.55.54.5,22.2Z" transform="translate(-230.09 -123.61)"/><path class="cls-6" d="M379.71,390.68c2,2.51,1.45,2.33,3.78.72,3.91-3.58,3-8.06,3.21-13.79a48.7,48.7,0,0,0-.48-8.77l-1.05-6.8c-.66-3.23-4.77-1.26-6.58-.18l1.12,28.82Z" transform="translate(-230.09 -123.61)"/><path class="cls-6" d="M398.22,344.26c1.64-4.28,19.13-15.17,15.64-22.76-1.17-2.15-3-6.27-4.2-7.92-4.9-5.94-23.34,1-25.2,5.44-1.17,2.48,3.73,7.76,5.36,8.58,1.17-1.48,10.5-5.11,13.07-5.77a28.83,28.83,0,0,1-1.63,3.13c-4.9,6.27-11.9,13.2-18,19-1.17,1.48-4.66,5.44-4.9,7.25.7,1.32,4.9,4.29,6.53,4.95,4.9,2.15,19.37-4.78,23.57-6.93,3-1.32,5.37-4.95,4-7.25-3.5,0-11,1.81-14.24,2.3Z" transform="translate(-230.09 -123.61)"/><path class="cls-6" d="M443.42,325.69c-.67,9.24-4,14.68-10.71,23.91-6.36,5.92-14.73,6.87-8.71-8.05l4-9.47c1.67-2.6,5-7.57,9-9.94,7.7-5.44,6.36.47,6.36,3.55ZM414.63,342.5c0,4,0,8.52,3,10.89a36.06,36.06,0,0,0,8.71,4.26c5.69,1,14.39-6.86,16.74-9.94a35.79,35.79,0,0,0,8-17.52c1.68-7.34-3.68-14.68-8.37-18-5.69-.71-8.7,2.36-12.39,4.26-2-1.42-2-2.61-4-4-5.7,1.66-11.72,22.73-11.72,30.07Z" transform="translate(-230.09 -123.61)"/><path class="cls-6" d="M500.18,344.26c1.64-4.28,19.13-15.17,15.63-22.76-1.16-2.15-3-6.27-4.2-7.92-4.89-5.94-23.33,1-25.19,5.44-1.17,2.48,3.73,7.76,5.36,8.58,1.17-1.48,10.5-5.11,13.07-5.77a28.83,28.83,0,0,1-1.63,3.13c-4.9,6.27-11.9,13.2-18,19-1.17,1.48-4.67,5.44-4.9,7.25.7,1.32,4.9,4.29,6.53,4.95,4.9,2.15,19.37-4.78,23.57-6.93,3-1.32,5.36-4.95,4-7.25-3.5,0-11,1.81-14.23,2.3Z" transform="translate(-230.09 -123.61)"/><path class="cls-6" d="M467,344.35c1.63-4.29,19.13-15.17,15.63-22.76-1.17-2.15-3-6.27-4.2-7.92-4.9-5.94-23.33,1-25.2,5.44-1.16,2.48,3.74,7.76,5.37,8.58,1.17-1.48,10.5-5.11,13.07-5.77a27.1,27.1,0,0,1-1.64,3.13c-4.9,6.27-11.9,13.2-18,19-1.17,1.49-4.67,5.45-4.9,7.26.7,1.32,4.9,4.29,6.53,5,4.9,2.15,19.37-4.78,23.56-6.93,3-1.32,5.37-4.95,4-7.26-3.5,0-11,1.82-14.23,2.31Z" transform="translate(-230.09 -123.61)"/></svg>